HIERARCHY
ROOT RootJoint
{
    OFFSET   0.000000   0.000000   0.000000
    CHANNELS 6 Xposition Yposition Zposition Xrotation Yrotation Zrotation
    JOINT pelvis_lowerback
    {
        OFFSET   0.000000   0.093605   0.000000
        CHANNELS 3 Xrotation Yrotation Zrotation
        JOINT lowerback_torso
        {
            OFFSET   0.000000   0.100000   0.000000
            CHANNELS 3 Xrotation Yrotation Zrotation
            JOINT torso_head
            {
                OFFSET   0.000000   0.282350   0.000000
                CHANNELS 3 Xrotation Yrotation Zrotation
                End Site
                {
                    OFFSET   0.000000   0.192650   0.000000
                }
            }
            JOINT rTorso_Clavicle
            {
                OFFSET  -0.001000   0.157500   0.000000
                CHANNELS 3 Xrotation Yrotation Zrotation
                JOINT rShoulder
                {
                    OFFSET  -0.117647   0.000000   0.000000
                    CHANNELS 3 Xrotation Yrotation Zrotation
                    JOINT rElbow
                    {
                        OFFSET  -0.245000   0.000000   0.000000
                        CHANNELS 3 Xrotation Yrotation Zrotation
                        JOINT rWrist
                        {
                            OFFSET  -0.240000   0.000000   0.000000
                            CHANNELS 3 Xrotation Yrotation Zrotation
                            End Site
                            {
                                OFFSET  -0.116353  -0.002500   0.000000
                            }
                        }
                    }
                }
            }
            JOINT lTorso_Clavicle
            {
                OFFSET   0.001000   0.157500   0.000000
                CHANNELS 3 Xrotation Yrotation Zrotation
                JOINT lShoulder
                {
                    OFFSET   0.117647   0.000000   0.000000
                    CHANNELS 3 Xrotation Yrotation Zrotation
                    JOINT lElbow
                    {
                        OFFSET   0.245000   0.000000   0.000000
                        CHANNELS 3 Xrotation Yrotation Zrotation
                        JOINT lWrist
                        {
                            OFFSET   0.240000   0.000000   0.000000
                            CHANNELS 3 Xrotation Yrotation Zrotation
                            End Site
                            {
                                OFFSET   0.116353  -0.002500   0.000000
                            }
                        }
                    }
                }
            }
        }
    }
    JOINT rHip
    {
        OFFSET  -0.100000  -0.051395   0.000000
        CHANNELS 3 Xrotation Yrotation Zrotation
        JOINT rKnee
        {
            OFFSET   0.000000  -0.410000   0.000000
            CHANNELS 3 Xrotation Yrotation Zrotation
            JOINT rAnkle
            {
                OFFSET   0.000000  -0.390000   0.000000
                CHANNELS 3 Xrotation Yrotation Zrotation
                JOINT rToeJoint
                {
                    OFFSET   0.000000  -0.050000   0.130000
                    CHANNELS 3 Xrotation Yrotation Zrotation
                    End Site
                    {
                        OFFSET  -0.010000   0.002000   0.060000
                    }
                }
            }
        }
    }
    JOINT lHip
    {
        OFFSET   0.100000  -0.051395   0.000000
        CHANNELS 3 Xrotation Yrotation Zrotation
        JOINT lKnee
        {
            OFFSET   0.000000  -0.410000   0.000000
            CHANNELS 3 Xrotation Yrotation Zrotation
            JOINT lAnkle
            {
                OFFSET   0.000000  -0.390000   0.000000
                CHANNELS 3 Xrotation Yrotation Zrotation
                JOINT lToeJoint
                {
                    OFFSET   0.000000  -0.050000   0.130000
                    CHANNELS 3 Xrotation Yrotation Zrotation
                    End Site
                    {
                        OFFSET   0.010000   0.002000   0.060000
                    }
                }
            }
        }
    }
}
MOTION
Frames: 12
Frame Time:   0.008333
 -2.338841   0.930032   5.317418  -6.896270   0.176826   1.154204   7.179355   2.027162   0.645628   3.272182  -1.314185   0.833052   1.088897  -0.808634   2.814705   2.288451  -6.931047  -2.517573   4.006550   3.740379  56.746643  -0.003179  42.102900   0.002627  -1.211407   3.456085  -0.513255   5.926264   5.428888   0.433450  10.908327  -7.042297 -61.123191  -0.000219 -26.919037  -0.000369   2.187509  -2.340105  -3.630970  11.709744   0.337984   2.762666   3.030217   0.000039  -0.000835  -0.535555  -1.965163  -3.709014 -11.430640   0.000003  -0.000162 -11.116828   7.520296   5.360403  47.751083   0.010302   0.018728 -10.232669  15.596636   1.562886  -4.415770   0.000867   0.000042
 -2.338566   0.930034   5.323328  -6.892182  -0.263071   1.219953   7.205700   2.280775   0.653732   3.364565  -1.257411   0.757311   1.038735  -0.784272   2.760200   2.233096  -6.876350  -2.568313   3.842341   3.795914  56.700925  -0.002783  42.393683   0.002289  -1.263268   3.433603  -0.527563   5.941727   5.676555   0.386539  11.158678  -6.946798 -61.172224  -0.000212 -26.855230  -0.000273   2.105043  -2.408099  -3.561438  11.991821   0.465993   2.577240   3.213949   0.000049  -0.001153  -0.781427  -1.674567  -3.679609 -11.734573   0.000022  -0.000128 -11.657021   7.439760   5.371539  45.980476   0.012192   0.021161 -10.355242  15.723898   1.521261  -4.328015   0.001090  -0.000120
 -2.338344   0.929888   5.329192  -6.878997  -0.677328   1.255253   7.232524   2.514657   0.674831   3.453140  -1.202984   0.689976   0.989381  -0.764165   2.710410   2.172576  -6.816432  -2.619219   3.679680   3.854250  56.659546  -0.002460  42.669988   0.001993  -1.313498   3.430402  -0.538830   5.971727   5.914495   0.332069  11.405999  -6.855341 -61.232892  -0.000231 -26.789222  -0.000211   2.030392  -2.437789  -3.531498  12.260427   0.569572   2.420830   3.405973   0.000061  -0.001438  -1.030114  -1.413644  -3.513874 -12.041026   0.000367   0.000062 -12.192353   7.337372   5.432522  44.167932   0.013711   0.023084 -10.472876  15.840273   1.482068  -4.225064   0.001342  -0.000276
 -2.338105   0.929659   5.335040  -6.869427  -1.054137   1.275351   7.265049   2.732898   0.703076   3.542319  -1.149982   0.627130   0.944033  -0.746171   2.664768   2.113738  -6.758475  -2.666078   3.525501   3.909504  56.619320  -0.002162  42.928228   0.001692  -1.361767   3.433883  -0.555551   6.005553   6.139166   0.267571  11.641415  -6.769857 -61.298891  -0.000259 -26.724793  -0.000163   1.960717  -2.445981  -3.525673  12.541565   0.676482   2.293305   3.585930   0.000057  -0.001573  -1.317644  -1.158114  -3.520003 -12.293684   0.000242   0.000048 -12.730780   7.226429   5.516935  42.427906   0.014344   0.024048 -10.584217  15.948638   1.445791  -4.128569   0.001515  -0.000378
 -2.337835   0.929374   5.340890  -6.864677  -1.404831   1.287954   7.301040   2.942165   0.730605   3.631725  -1.095596   0.566566   0.902856  -0.729311   2.622687   2.058633  -6.703324  -2.708295   3.381270   3.961460  56.581983  -0.001886  43.168962   0.001401  -1.407956   3.437116  -0.572749   6.041129   6.351668   0.197653  11.864247  -6.690026 -61.367508  -0.000287 -26.663092  -0.000124   1.894653  -2.443500  -3.535413  12.832703   0.776564   2.172513   3.759371   0.000060  -0.001639  -1.604361  -0.919850  -3.517153 -12.547557   0.000152   0.000037 -13.266076   7.116609   5.610800  40.786559   0.014265   0.024255 -10.688866  16.049671   1.411967  -4.041350   0.001605  -0.000440
 -2.337531   0.929051   5.346759  -6.864106  -1.733527   1.294950   7.337665   3.142945   0.755205   3.719804  -1.039993   0.507698   0.865367  -0.713383   2.583551   2.007788  -6.651271  -2.745443   3.247054   4.010235  56.548197  -0.001637  43.393176   0.001136  -1.452128   3.438002  -0.587415   6.077819   6.552940   0.125234  12.075064  -6.615168 -61.436637  -0.000311 -26.604207  -0.000092   1.831748  -2.433983  -3.555396  13.131323   0.870316   2.055863   3.930067   0.000068  -0.001665  -1.883512  -0.696370  -3.506234 -12.815720   0.000087   0.000028 -13.791866   7.010041   5.707861  39.247397   0.013686   0.023904 -10.786968  16.143887   1.380379  -3.963273   0.001630  -0.000471
 -2.337193   0.928703   5.352657  -6.866082  -2.042400   1.297256   7.372419   3.334865   0.776230   3.804732  -0.984051   0.450312   0.830949  -0.698344   2.546918   1.961228  -6.602500  -2.777854   3.122499   4.055940  56.517994  -0.001420  43.601981   0.000908  -1.494399   3.436320  -0.598548   6.115101   6.743574   0.052365  12.274387  -6.544820 -61.504943  -0.000330 -26.548139  -0.000066   1.771768  -2.419134  -3.582351  13.434700   0.958159   1.942245   4.100114   0.000081  -0.001665  -2.150224  -0.486544  -3.488155 -13.107138   0.000039   0.000021 -14.303371   6.907704   5.803848  37.807655   0.012776   0.023152 -10.878833  16.231754   1.350860  -3.893679   0.001605  -0.000480
 -2.336834   0.928326   5.358612  -6.818320  -2.313533   1.299597   7.303497   3.469959   0.802745   3.930078  -0.968274   0.393695   0.820282  -0.694326   2.490911   1.898740  -6.505854  -2.807902   2.974523   4.124800  56.518346  -0.001181  43.714980   0.000753  -1.520985   3.445495  -0.625401   6.147071   6.940410  -0.023189  12.510130  -6.520353 -61.606615  -0.000633 -26.369495  -0.000192   1.722842  -2.458387  -3.569020  13.653363   0.940319   1.837138   4.352860   0.000092  -0.001977  -2.440588  -0.246886  -3.463544 -13.437470  -0.000005   0.000124 -14.642795   6.753221   5.863237  35.683003   0.013102   0.025147 -10.835456  16.188082   1.218228  -3.838561   0.001619  -0.000541
 -2.336476   0.927830   5.364552  -6.763105  -2.521172   1.274861   7.236041   3.577199   0.849242   4.043690  -0.965067   0.349794   0.808732  -0.693991   2.438463   1.838240  -6.412603  -2.833420   2.833924   4.191436  56.522333  -0.000971  43.819796   0.000608  -1.547467   3.443005  -0.650342   6.183981   7.124075  -0.103258  12.735885  -6.498658 -61.713474  -0.000880 -26.198053  -0.000283   1.680551  -2.460891  -3.587145  13.864529   0.919044   1.769398   4.608034   0.000114  -0.002119  -2.740572  -0.020986  -3.438204 -13.759469  -0.000026   0.000098 -14.986975   6.588954   5.946564  33.544959   0.012663   0.025889 -10.799521  16.143075   1.093936  -3.772977   0.001702  -0.000591
 -2.336108   0.927240   5.370505  -6.712771  -2.695384   1.234851   7.177009   3.678319   0.899948   4.152777  -0.961526   0.314034   0.798058  -0.694050   2.390627   1.782288  -6.324770  -2.852371   2.702874   4.254206  56.528775  -0.000785  43.917184   0.000468  -1.573091   3.437308  -0.671340   6.220530   7.296111  -0.184918  12.947980  -6.479164 -61.818249  -0.001062 -26.036999  -0.000328   1.641030  -2.451838  -3.619246  14.087313   0.891761   1.722774   4.856993   0.000134  -0.002170  -3.047129   0.182532  -3.410308 -14.075405  -0.000038   0.000077 -15.339887   6.430845   6.041073  31.510988   0.011624   0.025589 -10.767673  16.100374   0.978183  -3.713101   0.001726  -0.000601
 -2.335716   0.926587   5.376491  -6.668209  -2.850121   1.185778   7.124138   3.777881   0.949630   4.258170  -0.954021   0.282394   0.788837  -0.693911   2.346331   1.730943  -6.241735  -2.864914   2.581046   4.313451  56.537663  -0.000625  44.007496   0.000340  -1.597628   3.428719  -0.686114   6.256682   7.458498  -0.266822  13.147472  -6.461040 -61.919382  -0.001187 -25.885803  -0.000340   1.603475  -2.437609  -3.657222  14.322480   0.863585   1.686648   5.099583   0.000155  -0.002166  -3.351578   0.370248  -3.378990 -14.397042  -0.000045   0.000060 -15.694859   6.280959   6.136466  29.601196   0.010252   0.024675 -10.738693  16.060169   0.870377  -3.660088   0.001693  -0.000586
 -2.335297   0.925891   5.382521  -6.627752  -2.991704   1.130448   7.074800   3.876247   0.996378   4.358697  -0.942260   0.253053   0.780764  -0.693552   2.304962   1.683801  -6.163169  -2.872086   2.467745   4.369490  56.548744  -0.000491  44.091387   0.000231  -1.621096   3.418094  -0.694259   6.292717   7.612392  -0.347779  13.335542  -6.443820 -62.016408  -0.001268 -25.743793  -0.000331   1.567683  -2.419520  -3.698501  14.567186   0.836556   1.656336   5.337341   0.000177  -0.002129  -3.646592   0.545245  -3.344086 -14.735659  -0.000048   0.000047 -16.046398   6.139572   6.227448  27.815005   0.008730   0.023408 -10.712120  16.022346   0.769953  -3.613659   0.001619  -0.000556
